<svg width="79" height="79" viewBox="0 0 79 79" fill="none" xmlns="http://www.w3.org/2000/svg">
<path d="M47.6283 22.4135C49.6537 22.4135 51.2956 20.8019 51.2956 18.8139C51.2956 16.8259 49.6537 15.2143 47.6283 15.2143C45.6029 15.2143 43.9609 16.8259 43.9609 18.8139C43.9609 20.8019 45.6029 22.4135 47.6283 22.4135Z" fill="white"/>
<path d="M51.279 32.9552C51.279 25.3221 44.9898 19.1192 37.253 19.1192C29.5162 19.1192 23.2271 25.306 23.2271 32.9552C23.2271 40.6044 29.5162 46.7912 37.253 46.7912C44.9898 46.7912 51.279 40.6044 51.279 32.9552ZM27.6343 33.0034C27.6343 27.7165 31.9772 23.4259 37.3495 23.4259C42.7219 23.4259 47.0648 27.7165 47.0648 33.0034C47.0648 38.2903 42.7219 42.5809 37.3495 42.5809C31.9772 42.5809 27.6343 38.2903 27.6343 33.0034Z" fill="white"/>
<path d="M41.7251 46.3734C36.4171 46.3734 32.1064 50.6158 32.1064 55.8545C32.1064 61.0932 36.4171 65.3356 41.7251 65.3356C47.0331 65.3356 51.3439 61.0932 51.3439 55.8545C51.3439 50.6158 47.0331 46.3734 41.7251 46.3734ZM41.7895 61.3824C38.7012 61.3824 36.1919 58.9077 36.1919 55.8705C36.1919 52.8334 38.7012 50.3587 41.7895 50.3587C44.8778 50.3587 47.387 52.8334 47.387 55.8705C47.387 58.9077 44.8778 61.3824 41.7895 61.3824Z" fill="white"/>
<path d="M39.1191 78.7828C31.382 78.7828 23.8188 76.4884 17.3857 72.19C10.9526 67.8915 5.93861 61.782 2.97778 54.6339C0.016952 47.4859 -0.757739 39.6203 0.751678 32.032C2.2611 24.4436 5.98683 17.4733 11.4577 12.0024C16.9286 6.53147 23.899 2.80574 31.4873 1.29633C39.0757 -0.213089 46.9412 0.561593 54.0893 3.52242C61.2373 6.48325 67.3469 11.4972 71.6454 17.9303C75.9438 24.3634 78.2381 31.9267 78.2381 39.6637C78.2267 50.0352 74.1016 59.9787 66.7678 67.3124C59.434 74.6462 49.4906 78.7713 39.1191 78.7828ZM39.1191 4.86608C32.2372 4.86182 25.5086 6.89823 19.784 10.7178C14.0595 14.5374 9.59599 19.9687 6.95799 26.3248C4.31999 32.681 3.62592 39.6767 4.96354 46.4273C6.30116 53.1779 9.6104 59.3803 14.4728 64.2503C19.3353 69.1203 25.5326 72.4391 32.2811 73.7872C39.0296 75.1352 46.0264 74.452 52.3866 71.8238C58.7469 69.1957 64.185 64.7406 68.0135 59.022C71.8419 53.3033 73.8887 46.5779 73.8951 39.696C73.8837 30.4744 70.2169 21.6333 63.6982 15.1106C57.1795 8.58787 48.3407 4.91552 39.1191 4.89841V4.86608Z" fill="white"/>
</svg>
